# xmcd CD database file
#
# Track frame offsets:
#	150
#	13881
#	27413
#	42097
#	55507
#	67598
#	80592
#	96569
#	110920
#	125349
#
# Disc length: 1841 seconds
#
# Revision: 1
# Processed by: cddbd v1.5.2PL0 Copyright (c) Steve Scherf et al.
# Submitted via: CDex 1.70beta2
#
DISCID=80072f0a
DTITLE=Deryl Dodd - Stronger Proof
DYEAR=2004
DGENRE=Country
TTITLE0=Never Again
TTITLE1=Stronger Proof
TTITLE2=Somethin' Ain't Always Better( (Than Nothin')
TTITLE3=Outside Lookin' In
TTITLE4=More Of The Same
TTITLE5=Love Or Something Like It
TTITLE6=She Does The Best She Can
TTITLE7=Livin' Where You Told  Me To Go  
TTITLE8=Let Me Be
TTITLE9=The Crowd
EXTD=YEAR: 2004
EXTT0=
EXTT1=
EXTT2=
EXTT3=
EXTT4=
EXTT5=
EXTT6=
EXTT7=
EXTT8=
EXTT9=
PLAYORDER=
